<?xml version="1.0" encoding="utf-8"?>
<svg xmlns="http://www.w3.org/2000/svg" viewBox="292.387 124.567 139.274 238.755">
  <defs>
    <linearGradient gradientUnits="userSpaceOnUse" x1="191.764" y1="199.28" x2="191.764" y2="280.336" id="gradient-0" gradientTransform="matrix(-0.084291, 0.996441, -0.292888, -0.024777, 445.204083, 68.676131)">
      <stop offset="0" style="stop-color: rgb(47.843% 34.902% 18.039%)"/>
      <stop offset="1" style="stop-color: rgb(31.381% 20.217% 3.5546%)"/>
    </linearGradient>
    <linearGradient gradientUnits="userSpaceOnUse" x1="191.388" y1="165.096" x2="191.388" y2="177.607" id="gradient-2" gradientTransform="matrix(0.015853, 0.999875, -3.849729, 0.061042, 1025.061768, -12.459072)">
      <stop offset="0" style="stop-color: rgb(62.745% 64.706% 62.745%)"/>
      <stop offset="1" style="stop-color: rgb(35.981% 37.763% 35.987%)"/>
    </linearGradient>
    <linearGradient gradientUnits="userSpaceOnUse" x1="191.687" y1="182.034" x2="191.687" y2="194.931" id="gradient-1" gradientTransform="matrix(0.015159, 0.999884, -4.295906, 0.065132, 1167.408106, 2.709089)">
      <stop offset="0" style="stop-color: rgb(62.745% 64.706% 62.745%)"/>
      <stop offset="1" style="stop-color: rgb(35.981% 37.763% 35.987%)"/>
    </linearGradient>
  </defs>
  <path style="stroke: rgb(0, 0, 0); stroke-width: 1; fill-rule: nonzero; paint-order: fill; fill: rgba(60, 34, 10, 0.996);" d="M 362.178 136.552 C 362.158 136.535 365.086 132.678 365.333 132.913 C 382.631 149.417 352.049 153.923 364.361 168.586 C 364.555 168.817 360.299 172.336 360.236 172.226 C 346.956 148.969 375.407 147.439 362.178 136.552 Z M 312.411 196.866 C 312.411 196.866 312.659 190.17 312.715 187.236 C 312.79 183.329 314.665 178.932 319.092 178.866 C 343.171 178.507 380.746 178.72 405.181 178.866 C 413.55 178.916 414.747 186.04 414.747 186.04 L 415.145 196.004 C 415.145 196.004 416.86 196.03 419.171 196.146 C 422.442 196.31 422.708 197.704 422.952 200.251 C 423.295 203.824 423.35 213.129 423.35 213.129 L 419.319 218.113 L 411.845 219.145 L 366.837 354.986 L 361.119 354.932 L 316.868 219.273 L 307.933 217.925 C 307.933 217.925 304.262 217.556 303.947 213.142 C 303.68 209.401 303.67 205.161 303.947 201.185 C 304.088 199.16 304.745 196.843 307.534 196.801 C 309.366 196.773 312.411 196.866 312.411 196.866 Z"/>
  <path style="paint-order: fill; fill: url(&quot;#gradient-0&quot;); stroke: rgba(0, 0, 0, 0); stroke-width: 1;" d="M 322.134 217.88 C 320.355 217.88 401.867 217.88 406.127 217.88 L 379.696 298.349 L 347.978 298.936 L 322.134 217.88 Z"/>
  <path style="fill: url(&quot;#gradient-2&quot;); stroke: rgba(0, 0, 0, 0); stroke-width: 1;" d="M 320.734 183.696 L 405.42 183.696 L 408.307 184.466 C 408.307 184.466 409.654 184.851 410.039 187.546 C 410.424 190.241 410.039 195.63 410.039 195.63 L 317.269 196.207 L 317.269 186.006 L 318.424 184.659 L 320.734 183.696 Z"/>
  <path style="fill: url(&quot;#gradient-1&quot;); stroke: rgba(0, 0, 0, 0); stroke-width: 1;" d="M 310.725 200.634 L 418.315 201.019 L 419.085 202.366 L 419.085 213.529 C 419.085 213.529 308.993 213.337 308.993 213.529 C 308.993 213.721 308.993 201.981 308.993 201.981 L 310.725 200.634 Z"/>
</svg>